<svg width="3818" height="876" viewBox="0 0 3818 876" fill="none" xmlns="http://www.w3.org/2000/svg">
<mask id="mask0_34_4" style="mask-type:alpha" maskUnits="userSpaceOnUse" x="0" y="0" width="3818" height="876">
<rect x="3818" y="876" width="3818" height="876" transform="rotate(-180 3818 876)" fill="#D9D9D9"/>
</mask>
<g mask="url(#mask0_34_4)">
<path d="M-702.109 129.929C-658.361 237.929 -537.274 500.829 -402.91 688.429C-234.954 922.929 698.437 892.929 1352.82 531.929C1876.33 243.129 2752.45 226.263 3125.07 253.929C3395.21 287.763 4032.03 351.129 4418.23 333.929M-790.216 -44.0706C-746.469 63.9294 -625.381 326.829 -491.017 514.429C-323.062 748.929 610.329 718.929 1264.71 357.929C1788.22 69.1294 2664.34 52.2627 3036.96 79.9294C3307.1 113.763 3943.92 177.129 4330.13 159.929" stroke="#FFD2D2" stroke-width="51" stroke-linecap="round"/>
</g>
</svg>
