<svg width="2080" height="876" viewBox="0 0 2080 876" fill="none" xmlns="http://www.w3.org/2000/svg">
<mask id="mask0_1_766" style="mask-type:alpha" maskUnits="userSpaceOnUse" x="0" y="0" width="2080" height="876">
<rect x="2080" y="876" width="2080" height="876" transform="rotate(-180 2080 876)" fill="#D9D9D9"/>
</mask>
<g mask="url(#mask0_1_766)">
<path d="M-382.5 129.929C-358.667 237.929 -292.7 500.829 -219.5 688.429C-128 922.929 380.5 892.929 737 531.929C1022.2 243.129 1499.5 226.263 1702.5 253.929C1849.67 287.763 2196.6 351.129 2407 333.929M-430.5 -44.0706C-406.667 63.9294 -340.7 326.829 -267.5 514.429C-176 748.929 332.5 718.929 689 357.929C974.2 69.1294 1451.5 52.2627 1654.5 79.9294C1801.67 113.763 2148.6 177.129 2359 159.929" stroke="#FFD2D2" stroke-width="51" stroke-linecap="round"/>
</g>
</svg>
