<svg width="727" height="2814" viewBox="0 0 727 2814" fill="none" xmlns="http://www.w3.org/2000/svg">
<mask id="mask0_45_17" style="mask-type:alpha" maskUnits="userSpaceOnUse" x="0" y="0" width="727" height="2814">
<rect width="727" height="2814" fill="#D9D9D9"/>
</mask>
<g mask="url(#mask0_45_17)">
<path d="M783.5 43C632.49 57.8333 155.891 230.7 55.5816 529.5C-69.8055 903 370.624 1170 310.136 1595C249.648 2020 116.7 1975.5 159.546 2232.5C193.822 2438.1 645.524 2722.67 766.5 2774M780.5 256C676.476 268.83 365.098 326.059 296 584.5C209.627 907.551 580.167 1161.91 538.5 1529.5C496.833 1897.09 385.986 1953.21 415.5 2175.5C439.112 2353.33 697.165 2486.6 780.5 2531" stroke="#FFD2D2" stroke-width="54"/>
</g>
</svg>
