<svg width="803" height="117" viewBox="0 0 803 117" fill="none" xmlns="http://www.w3.org/2000/svg">
<path d="M71.4315 3.2634C67.3539 5.30226 63.1064 8.36055 62.257 9.88969C60.558 12.6082 59.7085 12.6082 54.7814 10.5693C46.1166 7.00131 35.0731 7.51102 29.4665 11.9286C23.3501 16.6859 19.7822 25.521 21.1414 32.657C22.1608 38.094 21.821 38.4338 15.8745 39.4532C11.4572 40.3027 8.399 39.9629 5.51072 37.924C1.77294 35.5454 1.26324 35.5454 0.413749 37.924C-1.28524 42.1717 2.45254 48.4582 7.8893 51.3465C12.4766 53.7252 12.9863 54.9146 13.6659 64.0894C14.1756 71.3953 15.3649 75.4731 17.9133 78.1915C22.5006 83.2887 24.3695 100.449 20.8016 103.507C17.2337 106.396 17.9133 108.435 22.6705 108.435C25.5588 108.435 27.4277 107.245 28.2772 104.867C29.1267 102.828 32.3547 100.279 35.7527 99.2598C41.5293 97.2209 41.8691 97.2209 46.9661 103.507C50.1941 107.245 51.7232 110.304 50.7038 110.983C47.3058 113.022 48.8349 117.1 52.9125 116.59C55.6309 116.25 56.8202 114.721 57.16 111.323C57.4998 108.265 59.3687 105.886 62.4269 104.357C64.9753 102.998 69.9024 98.7501 73.3004 95.0122L79.5866 88.046L85.0234 91.4441C92.6689 96.0316 104.902 96.0316 110.848 91.2742C115.096 87.8761 116.285 87.7062 122.401 89.5752C126.139 90.7645 129.707 91.2742 130.217 90.5946C132.255 88.5558 127.668 83.7984 123.081 83.2887C118.493 82.779 117.984 80.7401 120.192 72.9245C120.872 70.3759 123.251 68.1672 126.988 66.9778C131.236 65.6186 133.954 63.07 137.182 56.6136C141.09 49.3077 142.449 48.1183 146.357 48.6281C151.454 49.1378 151.794 48.6281 149.075 43.5309C147.716 40.9823 146.187 40.3027 142.619 40.9823C138.711 41.8319 137.692 40.9823 134.634 35.5454C131.406 29.5987 131.236 28.5793 133.445 24.3316C138.542 14.8169 131.406 6.6615 122.911 12.2684C120.532 13.7975 118.154 17.0257 117.644 19.2345C116.795 22.8025 115.775 23.3122 112.887 22.4627C111.018 21.7831 109.319 21.2733 109.319 21.1034C109.319 21.1034 107.79 17.8752 105.921 14.3072C98.9551 0.714818 85.0234 -3.70271 71.4315 3.2634ZM96.5765 11.079C100.484 14.4771 102.183 17.8752 102.863 23.1423C103.882 31.2977 105.751 33.1667 109.489 30.1084C111.358 28.5793 113.397 28.5793 118.493 29.9385C127.328 32.657 130.896 37.2444 131.746 46.7591C132.765 57.4631 128.178 63.07 119.003 62.2205L113.057 61.7108L112.887 71.2254C112.717 78.0216 111.867 81.9295 109.489 84.3081C103.033 91.6141 91.8194 90.4247 82.6448 81.7596L78.2275 77.5119L73.98 84.1382C63.9559 99.9394 51.5533 104.527 48.1553 93.6529C45.6069 86.0072 44.4176 85.3276 40.0002 89.2354C33.544 95.0122 30.4859 95.352 28.4471 90.0849C26.918 86.347 27.2578 85.1577 29.4665 83.7984C36.6022 79.5508 40.8497 75.3032 43.9079 69.3565C46.9661 63.2399 47.6456 62.9001 53.0824 63.7496C59.1988 64.769 69.9024 60.0117 68.883 56.7835C68.5432 55.7641 65.3151 54.4048 61.5774 53.5553C57.8396 52.8757 52.4028 49.8174 49.0048 46.5892C42.039 39.9629 36.942 37.0745 32.3547 37.0745C26.0685 37.0745 24.8792 26.5404 30.316 19.5743C35.4129 13.1179 42.039 12.4383 52.5727 16.8558L61.4075 20.7636L65.8248 15.4966C71.7713 8.53046 75.679 6.6615 84.1739 6.49159C89.7806 6.49159 92.6689 7.68093 96.5765 11.079ZM128.857 19.0646C128.857 21.7831 125.799 24.3316 124.27 22.8025C122.911 21.4432 125.12 16.6859 127.158 16.6859C128.008 16.6859 128.857 17.7053 128.857 19.0646ZM21.821 60.6913C23.8598 57.633 25.5588 59.502 24.1996 63.2399C23.0103 66.2982 19.2725 66.8079 17.5735 64.2593C16.8939 63.2399 17.0638 61.0311 17.7434 59.502C18.7628 56.9534 19.1026 56.9534 19.7822 59.8418C20.2919 62.3904 20.8016 62.5603 21.821 60.6913ZM35.243 61.8807C37.7915 60.3515 37.6216 63.07 35.0731 65.6186C31.845 68.8468 30.316 67.9972 30.316 62.9001C30.316 59.6719 30.8257 58.9923 31.845 60.6913C32.6945 61.8807 34.2236 62.3904 35.243 61.8807Z" fill="black"/>
<path d="M162.648 26.5544C162.138 27.5738 162.478 32.8409 163.667 38.2779C165.536 47.4527 165.536 52.5499 163.158 85.8513L162.818 91.798L179.808 92.3077C200.026 92.8174 203.424 92.1378 208.861 86.361L212.938 81.9435L216.336 86.361C220.923 92.1378 229.758 95.0262 235.705 92.6475C238.933 91.4581 241.311 91.4581 243.69 92.8174C245.729 93.8368 248.447 94.1766 249.976 93.497C251.505 92.8174 258.981 92.4776 266.286 92.4776C274.951 92.6475 280.218 92.1378 281.068 90.7785C281.747 89.7591 281.068 85.5115 279.708 81.2638C278.349 77.1861 277.67 72.5987 278.179 71.0695C279.199 68.521 279.539 68.521 282.087 71.0695C284.126 72.9385 284.975 76.8463 285.145 82.793V91.798H296.189H307.232L307.742 86.361C308.591 77.6958 294.32 63.7636 284.296 63.7636C282.427 63.7636 280.898 62.9141 280.898 62.0646C280.898 59.8558 288.543 59.8558 296.019 62.0646C299.417 62.9141 302.815 63.084 304.514 62.2345C306.892 60.8752 307.232 61.5549 306.722 67.1617C305.023 84.6619 322.013 97.5747 340.192 92.6475C343.93 91.6281 348.178 89.5892 349.707 88.2299C352.255 85.6814 352.595 85.6814 354.464 88.06C355.653 89.5892 358.372 91.4581 360.75 92.3077C366.017 94.1766 395.24 92.8174 396.599 90.4387C397.278 89.5892 396.599 85.0018 395.41 80.0745C392.351 69.0307 392.351 55.948 395.41 40.4866C396.939 31.8215 397.109 27.7437 395.919 26.5544C393.201 23.8359 375.192 24.1757 372.983 26.8942C371.624 28.5933 371.794 31.6516 373.493 38.4478C376.721 50.511 376.721 50.8508 372.303 47.7925C366.527 43.7148 359.561 44.3944 354.464 49.4916L350.216 53.7392L346.139 50.1712C341.382 45.5838 328.809 43.8847 321.673 46.7731C318.785 47.9624 314.538 51.1906 312.329 53.9091C308.421 58.4966 308.082 58.6665 308.082 55.2684C308.082 44.2245 296.868 41.5061 285.145 49.3217C281.747 51.8703 278.519 53.3994 278.009 52.8897C277.5 52.5499 278.179 48.1324 279.199 43.0352C280.388 38.108 280.898 32.1613 280.728 29.7826C280.048 25.7049 279.539 25.535 268.155 25.535H256.262V30.6321C256.432 33.3506 256.942 38.7876 257.791 42.5255C258.811 47.9624 258.641 48.9819 256.942 47.1129C255.583 45.9236 249.636 45.0741 241.141 45.0741C225.511 45.0741 217.695 48.4722 214.297 56.4577C213.108 59.1762 212.089 61.3849 211.919 61.7248C211.749 62.0646 209.2 60.8752 206.312 59.0063L201.045 55.7781L206.142 52.2101C212.259 47.6226 213.958 41.676 211.239 34.7099C207.841 26.7243 201.895 24.6855 181.677 24.6855C170.633 24.6855 163.498 25.3651 162.648 26.5544ZM193.06 41.8459C195.608 45.9236 193.23 50.1712 188.303 50.1712C184.735 50.1712 184.055 49.3217 184.055 45.4139C184.055 42.6954 184.565 39.9769 185.245 39.2973C187.114 37.5982 191.191 38.7876 193.06 41.8459ZM260.51 57.3072C260.51 65.8025 258.301 79.0551 256.942 79.0551C255.243 79.0551 254.903 63.2539 256.432 57.3072C257.112 55.2684 258.131 53.5693 258.981 53.5693C259.83 53.5693 260.51 55.2684 260.51 57.3072ZM331.867 65.1229C328.979 70.0501 323.372 72.2589 323.372 68.3511C323.372 64.9918 325.071 63.9335 326.94 61.3849C329.659 57.9868 331.188 57.3072 332.547 58.6665C333.906 60.0257 333.736 61.7248 331.867 65.1229ZM235.874 69.8802C235.874 77.6958 235.365 79.9046 233.326 79.9046C231.457 79.9046 230.608 77.6958 230.268 71.5793C229.588 62.0646 230.778 58.1567 233.836 59.1762C235.195 59.516 235.874 63.2539 235.874 69.8802ZM375.022 62.4044C376.721 68.8608 376.211 74.8074 373.493 78.3755C371.284 81.0939 370.774 81.2638 369.245 79.0551C367.376 76.1667 366.867 61.5549 368.735 59.8558C370.944 57.4771 374.002 58.8364 375.022 62.4044ZM193.23 67.6714C195.269 73.4482 193.06 78.0356 187.623 78.7153C184.395 79.225 184.055 78.5454 184.055 70.5598C184.055 62.5743 184.395 61.8947 187.793 62.4044C190.172 62.7442 192.21 64.783 193.23 67.6714ZM348.857 73.6181C348.857 76.6764 338.663 80.924 331.528 80.5842C328.639 80.4143 329.149 80.0745 333.566 78.7153C336.794 77.8657 341.382 75.657 343.76 73.788C349.027 69.8802 348.857 69.8802 348.857 73.6181Z" fill="black"/>
<path d="M642.22 27.2353C638.312 29.4441 638.482 34.0315 642.729 38.4491C647.826 44.0559 652.244 44.7355 658.02 40.6578C663.627 36.75 664.816 30.6334 660.739 27.2353C658.87 25.7062 657.341 25.5363 654.792 27.0654C652.414 28.2547 650.205 28.2547 648.166 27.2353C646.297 26.2159 644.089 26.2159 642.22 27.2353Z" fill="black"/>
<path d="M441.229 28.9344C440.72 29.9538 441.059 35.2209 442.249 40.6579C443.608 47.1143 443.948 55.9493 443.268 65.6339C442.589 73.7894 442.079 83.6439 441.739 87.3818L441.399 94.178H460.428C477.418 94.178 479.966 93.8382 484.554 90.4401L489.651 86.5322L490.16 90.4401C490.67 93.8382 491.519 94.178 502.563 94.178H514.456L513.946 88.2313C513.097 80.9254 513.267 42.0171 513.946 33.8617L514.456 27.915L502.223 27.4053C492.029 27.0655 489.82 27.4053 489.82 29.614C489.82 32.8422 488.291 32.8422 484.044 29.614C479.966 26.5557 443.098 25.8761 441.229 28.9344ZM471.641 44.3958C473.85 47.7939 470.622 52.5512 465.865 52.5512C463.316 52.5512 462.637 51.3619 462.637 46.4346C462.637 41.1676 463.146 40.488 466.205 40.9977C468.243 41.3375 470.792 42.6967 471.641 44.3958ZM493.218 59.6872C493.049 73.1097 493.049 73.6195 490.67 68.3524C489.481 65.464 486.422 61.7261 483.874 60.027L479.457 57.1387L484.723 54.0804C487.442 52.3813 489.82 49.6628 489.82 48.3036C489.82 46.9444 490.67 45.755 491.519 45.755C492.539 45.755 493.218 51.5318 493.218 59.6872ZM471.641 68.0126C475.039 73.6195 469.093 83.6439 464.166 80.4157C463.316 79.9059 462.637 76.168 462.637 71.9204C462.637 64.9543 462.976 64.2747 466.205 64.7844C468.243 65.1242 470.622 66.4834 471.641 68.0126Z" fill="black"/>
<path d="M524.31 50.8521C509.529 59.8571 510.378 83.6438 525.669 91.9691C532.465 95.5371 546.567 96.0469 552.853 92.6488C556.591 90.7798 557.95 90.7798 561.348 92.6488C567.804 96.2168 584.794 95.7071 591.59 91.4594C597.027 88.2312 597.366 88.2312 600.595 91.1196C605.352 95.3672 628.968 95.5371 633.725 91.2895C636.783 88.571 636.953 88.571 638.992 91.6293C640.861 94.6876 643.069 94.8575 662.608 94.8575C674.67 94.8575 685.544 94.1779 686.903 93.3284C688.942 91.9691 689.112 90.6099 687.243 83.9836C684.355 73.1097 684.525 63.4251 687.753 62.0658C692.51 60.3668 694.549 68.1824 692.34 80.0758C689.791 93.8381 690.981 95.3672 704.573 94.6876C716.466 94.1779 715.616 97.0663 712.558 69.7116C711.369 59.1775 709.84 52.7211 707.971 50.5123C704.403 46.6045 694.209 46.4346 688.942 50.1725C685.204 52.7211 684.864 52.7211 682.826 50.0026C681.127 47.6239 679.258 47.2841 673.991 48.1336C670.423 48.8132 665.666 50.5123 663.797 51.7016C660.399 53.9104 660.059 53.7405 659.21 50.8521C658.19 46.7744 653.263 46.6045 643.919 49.8327C638.312 51.8715 636.783 51.8715 632.366 49.6628C628.798 47.7938 623.871 47.2841 616.055 47.7938C606.371 48.4734 604.332 49.1531 600.934 53.2308C598.216 56.2891 596.857 56.9687 596.857 55.2696C596.857 51.022 587.682 47.454 576.639 47.454C568.484 47.454 565.595 48.3035 561.688 51.5317L556.931 55.6095L552.173 51.5317C546.057 46.2647 532.295 45.9249 524.31 50.8521ZM666.345 70.3912C666.515 73.1097 666.006 77.3573 665.326 79.3962C663.457 86.5322 661.418 79.736 661.588 64.9931C661.758 55.6095 661.758 55.2696 663.967 60.1969C665.326 62.9154 666.345 67.5028 666.345 70.3912ZM581.906 60.3668C584.794 61.8959 589.381 62.7455 591.93 62.4057C595.158 61.8959 596.857 62.4057 596.857 63.7649C596.857 68.5222 605.522 75.9981 613.337 78.0369C623.021 80.5855 625.4 82.4545 622.851 85.003C621.492 86.3623 618.944 85.6827 613.167 82.2846C608.24 79.3962 604.162 78.2068 601.954 78.8865C599.575 79.5661 598.556 79.2263 598.556 77.5272C598.556 72.0902 591.76 66.6533 581.566 63.7649C575.959 62.2357 571.372 60.1969 571.372 59.1775C571.372 56.7988 575.959 57.3085 581.906 60.3668ZM622.342 60.1969C627.439 63.0853 635.254 63.4251 636.953 60.7066C638.822 57.8182 642.729 64.2746 642.729 70.2213C642.729 73.1097 641.88 76.6777 641.03 78.0369C639.671 80.0758 639.331 79.9059 639.331 76.8476C639.331 71.4106 633.385 66.6533 623.021 63.595C613.847 61.0464 609.429 57.6483 615.036 57.6483C616.735 57.8182 619.963 58.8376 622.342 60.1969ZM539.941 61.0464C541.47 63.4251 536.033 72.9398 533.145 72.9398C529.747 72.9398 529.917 67.8426 533.315 63.0853C536.033 59.0076 538.242 58.3279 539.941 61.0464ZM573.581 78.7165C579.017 80.2457 583.265 82.2846 583.265 83.1341C583.265 86.7021 579.357 86.3623 571.712 82.1146C565.935 78.8865 562.367 77.867 560.159 78.7165C558.46 79.5661 554.722 80.4156 551.834 80.5855C549.115 80.9253 544.188 81.7748 541.3 82.2846C537.902 82.9642 535.693 82.7943 535.693 81.7748C535.693 80.9253 538.751 79.736 542.319 79.0564C546.737 78.3767 550.304 76.3379 552.853 73.2796L556.761 68.6921L560.328 72.2602C562.367 74.299 568.314 77.1874 573.581 78.7165Z" fill="black"/>
<path d="M724.791 50.8521C714.766 56.9687 711.199 71.0708 716.465 83.8137C719.694 91.4594 725.3 95.0274 734.135 95.0274C739.232 95.0274 741.271 95.7071 740.931 97.0663C739.742 100.464 731.926 100.634 725.98 97.576C720.883 95.0274 720.373 95.0274 717.315 97.7459C709.67 104.712 717.485 115.076 731.586 116.605C747.897 118.474 759.96 109.469 759.96 95.5372V87.7215L763.527 90.9497C766.416 93.4983 769.644 94.1779 780.347 94.1779C792.07 94.1779 794.109 93.6682 798.017 90.1002C801.245 87.0419 802.434 84.1535 802.434 79.736C802.434 71.7504 797.507 64.9931 785.784 63.595C777.119 61.0464 772.532 57.6483 777.799 57.6483C779.328 57.6483 782.896 58.8377 785.614 60.3668C788.503 61.726 792.75 62.7455 795.299 62.4057C799.206 62.0658 799.886 61.0464 799.886 56.7988C799.886 53.2308 798.697 51.1919 795.638 49.6628C789.692 46.6045 773.721 46.9443 767.775 50.0026C763.188 52.3813 762.508 52.3813 761.319 50.0026C758.94 45.9249 731.926 46.4346 724.791 50.8521ZM739.232 69.7116C739.572 79.9059 737.533 85.1729 734.305 81.9447C732.266 79.9059 731.586 64.2746 733.625 61.0464C736.174 56.9687 738.722 60.8765 739.232 69.7116ZM766.586 74.1291C768.115 75.1485 772.702 77.0175 776.949 78.2068C786.124 80.5855 788.503 82.4545 785.954 85.003C784.595 86.3623 782.046 85.6827 776.27 82.2846C768.624 77.867 761.659 77.6971 761.659 81.9447C761.659 83.1341 760.979 82.9642 759.96 81.435C759.11 80.0758 758.261 74.9786 758.431 70.3912V61.8959L761.149 64.9931C762.678 69.7116 765.057 72.9398 766.586 74.1291Z" fill="black"/>
<path d="M418.194 27.5737C416.835 28.4232 413.946 29.2728 411.908 29.2728C409.189 29.2728 408 30.2922 408 32.6709C408 35.5592 408.68 35.899 412.417 35.0495C415.645 34.2 416.665 34.3699 415.815 35.899C415.136 36.9185 413.437 37.768 412.078 37.768C409.359 37.768 408.849 40.4865 411.228 42.0156C414.286 43.7147 426.859 38.7874 426.179 36.069C426.009 34.7097 424.31 33.6903 422.441 34.0301C419.213 34.3699 419.213 34.3699 422.272 31.9912C423.97 30.632 424.82 28.763 424.14 27.7436C422.781 25.5348 421.422 25.3649 418.194 27.5737Z" fill="black"/>
<path d="M413.097 52.2099C413.097 56.2877 413.946 58.1566 415.645 58.1566C417.005 58.1566 418.194 56.9673 418.194 55.608C418.194 53.909 420.063 53.0595 424.14 53.0595C428.388 53.0595 430.087 52.3798 430.087 50.341C430.087 48.1322 428.898 47.7924 423.291 48.8118C418.874 49.4915 416.495 49.3216 416.495 48.1322C416.495 47.1128 415.815 46.2633 414.796 46.2633C413.946 46.2633 413.097 48.9817 413.097 52.2099Z" fill="black"/>
<path d="M413.097 64.7829C413.097 66.8217 415.136 67.5014 421.592 67.6713C428.218 67.6713 430.087 67.1615 430.087 65.1227C430.087 63.0838 428.048 62.4042 421.592 62.2343C414.966 62.2343 413.097 62.744 413.097 64.7829Z" fill="black"/>
<path d="M413.097 73.448C413.097 75.6568 414.286 76.8461 416.325 76.8461C418.194 76.8461 420.233 77.6956 420.912 78.7151C421.592 80.0743 420.403 80.2442 417.005 79.5646C413.267 78.7151 411.568 79.0549 410.888 80.9238C409.699 83.9821 411.058 85.3414 415.136 85.3414C417.005 85.3414 418.024 86.021 417.514 86.8705C417.005 87.5501 414.626 87.8899 412.247 87.3802C409.189 86.8705 408 87.3802 408 89.4191C408 91.6279 409.869 92.1376 416.325 92.1376C425.16 92.1376 429.067 88.5696 423.631 85.5113C421.082 83.9821 421.252 83.8122 424.65 83.6423C430.427 83.6423 429.067 79.3947 421.592 74.4674C413.437 69.2004 413.097 69.0305 413.097 73.448Z" fill="black"/>
</svg>
