<svg width="151" height="117" viewBox="0 0 151 117" fill="none" xmlns="http://www.w3.org/2000/svg">
<path d="M71.4315 3.2634C67.3539 5.30226 63.1064 8.36055 62.257 9.88969C60.558 12.6082 59.7085 12.6082 54.7814 10.5693C46.1166 7.00131 35.0731 7.51102 29.4665 11.9286C23.3501 16.6859 19.7822 25.521 21.1414 32.657C22.1608 38.094 21.821 38.4338 15.8745 39.4532C11.4572 40.3027 8.399 39.9629 5.51072 37.924C1.77294 35.5454 1.26324 35.5454 0.413749 37.924C-1.28524 42.1717 2.45254 48.4582 7.8893 51.3465C12.4766 53.7252 12.9863 54.9146 13.6659 64.0894C14.1756 71.3953 15.3649 75.4731 17.9133 78.1915C22.5006 83.2887 24.3695 100.449 20.8016 103.507C17.2337 106.396 17.9133 108.435 22.6705 108.435C25.5588 108.435 27.4277 107.245 28.2772 104.867C29.1267 102.828 32.3547 100.279 35.7527 99.2598C41.5293 97.2209 41.8691 97.2209 46.9661 103.507C50.1941 107.245 51.7232 110.304 50.7038 110.983C47.3058 113.022 48.8349 117.1 52.9125 116.59C55.6309 116.25 56.8202 114.721 57.16 111.323C57.4998 108.265 59.3687 105.886 62.4269 104.357C64.9753 102.998 69.9024 98.7501 73.3004 95.0122L79.5866 88.046L85.0234 91.4441C92.6689 96.0316 104.902 96.0316 110.848 91.2742C115.096 87.8761 116.285 87.7062 122.401 89.5752C126.139 90.7645 129.707 91.2742 130.217 90.5946C132.255 88.5558 127.668 83.7984 123.081 83.2887C118.493 82.779 117.984 80.7401 120.192 72.9245C120.872 70.3759 123.251 68.1672 126.988 66.9778C131.236 65.6186 133.954 63.07 137.182 56.6136C141.09 49.3077 142.449 48.1183 146.357 48.6281C151.454 49.1378 151.794 48.6281 149.075 43.5309C147.716 40.9823 146.187 40.3027 142.619 40.9823C138.711 41.8319 137.692 40.9823 134.634 35.5454C131.406 29.5987 131.236 28.5793 133.445 24.3316C138.542 14.8169 131.406 6.6615 122.911 12.2684C120.532 13.7975 118.154 17.0257 117.644 19.2345C116.795 22.8025 115.775 23.3122 112.887 22.4627C111.018 21.7831 109.319 21.2733 109.319 21.1034C109.319 21.1034 107.79 17.8752 105.921 14.3072C98.9551 0.714818 85.0234 -3.70271 71.4315 3.2634ZM96.5765 11.079C100.484 14.4771 102.183 17.8752 102.863 23.1423C103.882 31.2977 105.751 33.1667 109.489 30.1084C111.358 28.5793 113.397 28.5793 118.493 29.9385C127.328 32.657 130.896 37.2444 131.746 46.7591C132.765 57.4631 128.178 63.07 119.003 62.2205L113.057 61.7108L112.887 71.2254C112.717 78.0216 111.867 81.9295 109.489 84.3081C103.033 91.6141 91.8194 90.4247 82.6448 81.7596L78.2275 77.5119L73.98 84.1382C63.9559 99.9394 51.5533 104.527 48.1553 93.6529C45.6069 86.0072 44.4176 85.3276 40.0002 89.2354C33.544 95.0122 30.4859 95.352 28.4471 90.0849C26.918 86.347 27.2578 85.1577 29.4665 83.7984C36.6022 79.5508 40.8497 75.3032 43.9079 69.3565C46.9661 63.2399 47.6456 62.9001 53.0824 63.7496C59.1988 64.769 69.9024 60.0117 68.883 56.7835C68.5432 55.7641 65.3151 54.4048 61.5774 53.5553C57.8396 52.8757 52.4028 49.8174 49.0048 46.5892C42.039 39.9629 36.942 37.0745 32.3547 37.0745C26.0685 37.0745 24.8792 26.5404 30.316 19.5743C35.4129 13.1179 42.039 12.4383 52.5727 16.8558L61.4075 20.7636L65.8248 15.4966C71.7713 8.53046 75.679 6.6615 84.1739 6.49159C89.7806 6.49159 92.6689 7.68093 96.5765 11.079ZM128.857 19.0646C128.857 21.7831 125.799 24.3316 124.27 22.8025C122.911 21.4432 125.12 16.6859 127.158 16.6859C128.008 16.6859 128.857 17.7053 128.857 19.0646ZM21.821 60.6913C23.8598 57.633 25.5588 59.502 24.1996 63.2399C23.0103 66.2982 19.2725 66.8079 17.5735 64.2593C16.8939 63.2399 17.0638 61.0311 17.7434 59.502C18.7628 56.9534 19.1026 56.9534 19.7822 59.8418C20.2919 62.3904 20.8016 62.5603 21.821 60.6913ZM35.243 61.8807C37.7915 60.3515 37.6216 63.07 35.0731 65.6186C31.845 68.8468 30.316 67.9972 30.316 62.9001C30.316 59.6719 30.8257 58.9923 31.845 60.6913C32.6945 61.8807 34.2236 62.3904 35.243 61.8807Z" fill="black"/>
</svg>
