<svg width="1462" height="681" viewBox="0 0 1462 681" fill="none" xmlns="http://www.w3.org/2000/svg">
<path d="M1093.82 414.962C1095.44 419.169 1100.22 422.318 1107.2 421.676L1107.88 421.601C1112.78 420.988 1116.3 419.305 1118.74 416.25C1121.03 413.383 1122.39 409.302 1123.06 403.744L1123.18 402.612L1123.18 402.611C1124.41 391.525 1131.19 382.906 1142.27 377.367V377.366C1146.87 374.912 1153.62 369.846 1160.76 363.702C1167.46 357.943 1174.49 351.238 1180.41 344.854L1181.57 343.583L1204.31 318.389L1204.35 318.348L1204.39 318.377L1224.05 330.667L1224.06 330.666C1237.87 338.954 1255.83 343.1 1273.02 343.023C1289.95 342.948 1306.13 338.78 1316.87 330.456L1317.38 330.057C1325.06 323.912 1329.99 320.675 1335.77 319.827C1341.18 319.033 1347.34 320.338 1357.2 323.288L1359.22 323.9H1359.22C1365.98 326.05 1372.58 327.586 1377.72 328.276C1380.29 328.622 1382.5 328.755 1384.17 328.65C1385.01 328.598 1385.71 328.486 1386.26 328.311C1386.81 328.137 1387.2 327.902 1387.42 327.611L1387.42 327.61L1387.42 327.603C1389.24 325.782 1389.59 323.352 1388.82 320.689C1388.04 318.025 1386.15 315.134 1383.5 312.412C1378.38 307.138 1370.45 302.512 1362.43 301.391L1361.66 301.294C1357.5 300.833 1354.27 300.025 1351.87 298.626C1349.48 297.225 1347.93 295.232 1347.16 292.412C1346.39 289.595 1346.39 285.955 1347.08 281.257C1347.77 276.558 1349.15 270.794 1351.15 263.727V263.726C1353.54 254.769 1361.71 246.98 1374.52 242.588L1375.77 242.173C1383.45 239.718 1389.74 236.189 1395.56 230.36C1401.03 224.894 1406.09 217.403 1411.51 206.87L1412.6 204.723L1412.6 204.722C1419.67 191.512 1424.44 183.819 1429.21 179.662C1431.6 177.581 1433.99 176.386 1436.67 175.826C1439.35 175.267 1442.32 175.344 1445.85 175.806L1445.85 175.807C1450.46 176.267 1453.99 176.496 1456.54 176.295C1459.09 176.093 1460.63 175.461 1461.3 174.226C1461.64 173.608 1461.76 172.83 1461.68 171.863C1461.6 170.895 1461.31 169.741 1460.82 168.376C1459.96 165.986 1458.5 162.956 1456.51 159.148L1455.62 157.469C1453.16 152.866 1450.56 149.963 1446.97 148.512C1443.38 147.06 1438.79 147.057 1432.34 148.285H1432.34C1425.27 149.822 1420.79 149.827 1416.7 146.969C1414.65 145.541 1412.71 143.402 1410.58 140.394C1408.72 137.762 1406.73 134.461 1404.4 130.384L1403.39 128.589V128.588C1397.55 117.837 1394.47 111.526 1393.86 105.98C1393.28 100.775 1394.87 96.2504 1398.36 89.3759L1399.09 87.9686V87.9677C1408.29 70.7796 1406.45 54.8348 1398.48 45.7206C1390.64 36.753 1376.86 34.3751 1361.8 43.9608L1361.08 44.4266L1360.28 44.9618C1356.26 47.7246 1352.28 51.7693 1349.04 56.0858C1345.7 60.5468 1343.15 65.2919 1342.16 69.204L1342.06 69.58C1341.3 72.8077 1340.49 75.348 1339.54 77.2938C1338.6 79.24 1337.52 80.5964 1336.2 81.4501C1333.72 83.0512 1330.44 82.8722 1325.74 81.578L1324.78 81.3046L1324.77 81.3026C1321.39 80.0735 1318.17 78.999 1315.79 78.1532C1314.59 77.7309 1313.61 77.3659 1312.93 77.0673C1312.59 76.9181 1312.32 76.7846 1312.13 76.6678C1312.04 76.6096 1311.97 76.5532 1311.91 76.4999C1311.87 76.4541 1311.83 76.4017 1311.83 76.3446L1311.81 76.3192C1311.8 76.2968 1311.79 76.2628 1311.77 76.2186C1311.72 76.13 1311.66 75.9982 1311.58 75.826C1311.41 75.4817 1311.17 74.9751 1310.86 74.327C1310.24 73.0311 1309.33 71.1687 1308.22 68.9032C1306.27 64.9381 1303.68 59.7376 1300.79 54.1776L1299.54 51.7753C1286.95 27.2094 1268.07 10.9388 1246.2 3.95496C1224.67 -2.91964 1200.24 -0.797854 1176.05 11.2792L1174.89 11.8622H1174.89C1167.52 15.5475 1160 20.154 1153.93 24.5302C1150.9 26.7182 1148.23 28.8487 1146.13 30.7762C1144.16 32.5846 1142.7 34.2114 1141.89 35.5389L1141.74 35.7997L1141.74 35.8026L1141.17 36.6962C1138.37 41.0212 1136.11 43.2247 1132.55 43.5155C1130.65 43.6701 1128.4 43.2835 1125.5 42.3993C1122.97 41.6255 1119.95 40.4688 1116.25 38.9569L1114.62 38.287C1098.96 31.8389 1081.15 29.0754 1064.72 29.9198C1048.55 30.7511 1033.73 35.0792 1023.61 42.8231L1023.13 43.1942L1022.1 44.0106C1000.97 61.1063 988.609 91.7264 992.829 116.884L993.047 118.098C993.968 123.012 994.584 126.781 994.651 129.725C994.719 132.67 994.238 134.801 992.957 136.432C991.677 138.061 989.606 139.18 986.52 140.122C983.433 141.064 979.32 141.833 973.944 142.755H973.945C957.96 145.829 946.879 144.601 936.414 137.215C933.035 135.064 930.387 133.452 928.269 132.379C926.148 131.304 924.566 130.773 923.315 130.773C922.073 130.773 921.15 131.299 920.345 132.36C919.637 133.293 919.021 134.638 918.363 136.4L918.079 137.182L918.078 137.183L917.938 137.544C915.074 145.135 916.929 154.48 921.914 163.242C926.977 172.141 935.264 180.427 945.084 185.644L945.083 185.645C953.38 189.948 958.008 193.182 960.859 199.502C963.529 205.419 964.641 214.037 965.782 228.759L966.011 231.785V231.786C967.825 257.794 972.021 272.471 980.927 282.284L981.354 282.748L981.355 282.749C985.512 287.368 989.049 294.714 991.815 303.301C994.582 311.889 996.581 321.726 997.656 331.331C998.732 340.936 998.885 350.312 997.963 357.98C997.502 361.814 996.771 365.224 995.751 368.021C994.795 370.644 993.584 372.734 992.097 374.133L991.796 374.403L991.794 374.404L991.201 374.891C988.292 377.313 986.23 379.561 985.002 381.578C983.692 383.73 983.337 385.609 983.903 387.157C984.47 388.705 985.965 389.943 988.404 390.794C990.843 391.645 994.214 392.105 998.512 392.105C1003.73 392.105 1008.01 391.032 1011.38 388.891C1014.53 386.883 1016.88 383.932 1018.43 380.037L1018.73 379.246L1018.73 379.242C1020.27 375.54 1023.97 371.383 1028.81 367.693C1033.65 364.003 1039.65 360.774 1045.8 358.928V358.927C1051.02 357.084 1055.02 355.699 1058.37 355.016C1061.72 354.333 1064.42 354.351 1067.05 355.317C1069.67 356.282 1072.22 358.192 1075.25 361.276C1078.29 364.361 1081.82 368.627 1086.43 374.309L1086.43 374.308C1092.27 381.07 1096.58 387.22 1098.96 391.989C1100.15 394.373 1100.87 396.416 1101.05 398.021C1101.22 399.525 1100.93 400.661 1100.11 401.32L1099.94 401.445L1099.93 401.447L1099.37 401.797C1093.71 405.463 1092.19 410.755 1093.82 414.962ZM1128.42 357.747C1119.77 360.939 1111.85 361.115 1105.33 358.023C1099.02 355.028 1094.02 348.97 1090.91 339.644L1090.62 338.733C1088.31 331.821 1086.32 326.485 1084.37 322.592C1082.42 318.696 1080.53 316.254 1078.44 315.112C1076.35 313.974 1074.05 314.121 1071.27 315.44C1068.83 316.596 1066.03 318.648 1062.7 321.51L1061.23 322.785C1055.39 328.009 1050.32 332.006 1045.88 334.765C1041.44 337.523 1037.63 339.046 1034.31 339.316C1030.99 339.587 1028.17 338.6 1025.71 336.35C1023.42 334.244 1021.45 331.031 1019.69 326.711L1019.34 325.832C1016.58 319.073 1015.49 314.602 1016.11 311.201C1016.69 308.006 1018.77 305.769 1022.33 303.474L1023.05 303.015L1023.06 303.014C1048.85 287.656 1064.21 272.303 1075.26 250.81V250.809C1078.02 245.279 1080.25 241.052 1082.35 237.87C1084.45 234.688 1086.41 232.547 1088.65 231.195C1090.89 229.843 1093.4 229.285 1096.58 229.256C1099.35 229.23 1102.65 229.611 1106.72 230.221L1108.51 230.496C1119.55 232.336 1134.75 228.961 1146.72 223.664C1152.71 221.016 1157.89 217.89 1161.34 214.699C1164.68 211.604 1166.38 208.468 1165.66 205.658L1165.58 205.388C1165.28 204.488 1164.34 203.5 1162.86 202.474C1161.39 201.451 1159.4 200.396 1157.02 199.36C1152.56 197.418 1146.75 195.542 1140.47 194.05L1139.21 193.758C1132.44 192.527 1124.14 189.143 1116 184.609C1108.11 180.217 1100.36 174.743 1094.29 169.094L1093.71 168.546C1068.52 144.582 1050.1 134.153 1033.54 134.153C1027.83 134.153 1023.28 131.762 1019.98 127.782C1016.67 123.804 1014.61 118.241 1013.88 111.895C1012.45 99.4024 1016.15 83.8581 1025.65 71.3466L1026.11 70.7528H1026.11C1035.34 59.0661 1045.95 52.602 1059.03 51.0634C1071.69 49.5732 1086.66 52.7037 1104.91 60.1649L1106.68 60.9003L1106.68 60.9012L1138.59 75.0145L1154.54 56.0028C1165.29 43.4031 1174.21 35.4061 1184.28 30.4843C1194.04 25.7161 1204.88 23.8364 1219.52 23.4442L1220.95 23.411H1220.95C1231.09 23.411 1238.78 24.487 1245.71 27.1024C1252.2 29.5544 1258.01 33.3583 1264.53 38.8895L1265.85 40.0184C1272.92 46.1676 1278 52.3194 1281.61 59.3182C1285 65.8793 1287.1 73.1824 1288.37 81.9218L1288.61 83.6893C1289.53 91.0613 1290.64 97.0105 1292 101.614C1293.37 106.219 1294.97 109.472 1296.88 111.458C1298.79 113.439 1300.99 114.161 1303.56 113.704C1305.98 113.275 1308.72 111.804 1311.83 109.346L1312.46 108.841C1315.85 106.066 1319.4 104.678 1324.41 104.6C1329.41 104.524 1335.87 105.756 1345.09 108.214V108.213L1345.09 108.214C1361.07 113.132 1372.3 119.744 1379.92 129.436C1387.3 138.826 1391.28 151.099 1392.92 167.506L1393.07 169.106C1394.91 188.471 1391.69 203.239 1383.83 212.783C1376.11 222.181 1363.9 226.499 1347.68 225.165L1346.91 225.098L1325.47 223.261L1324.86 257.6C1324.26 281.795 1321.27 295.893 1312.95 304.554L1312.55 304.962C1300.86 318.189 1284.86 323.725 1267.64 322.033C1250.69 320.368 1232.55 311.7 1216.15 296.475L1215.37 295.746L1215.37 295.745L1199.45 280.44L1184.14 304.336C1166.01 332.915 1145.72 351.364 1128.42 357.747ZM1370.9 84.1385C1369.18 84.3658 1367.53 83.9706 1366.18 82.7675L1365.92 82.5165C1364.67 81.2672 1364.24 79.2454 1364.42 76.9335C1364.59 74.6192 1365.36 71.9993 1366.52 69.536C1367.67 67.0727 1369.21 64.7617 1370.93 63.0653C1372.64 61.3703 1374.54 60.2812 1376.41 60.2811C1377.97 60.2811 1379.53 61.2182 1380.69 62.7655C1381.85 64.3138 1382.62 66.4787 1382.62 68.9501C1382.62 73.8895 1379.84 78.6701 1376.38 81.5223C1374.64 82.9487 1372.73 83.8964 1370.9 84.1385ZM1003.89 229.256C999.435 239.733 986.522 241.51 980.316 232.868L980.021 232.442C978.781 230.581 978.321 227.644 978.475 224.49C978.619 221.531 979.305 218.368 980.405 215.699L980.631 215.172C981.552 212.869 982.321 211.137 982.996 210C983.333 209.431 983.65 209.006 983.952 208.733C984.255 208.46 984.552 208.332 984.849 208.374C985.143 208.416 985.417 208.625 985.678 208.978C985.94 209.333 986.197 209.844 986.457 210.509C986.912 211.672 987.381 213.32 987.903 215.464L988.13 216.413L988.131 216.415C988.591 218.718 989.052 220.48 989.539 221.723C989.783 222.344 990.033 222.833 990.291 223.194C990.55 223.556 990.814 223.785 991.086 223.893C991.621 224.108 992.226 223.867 992.942 223.122C993.656 222.38 994.459 221.158 995.38 219.47V219.469L995.384 219.464C997.23 216.694 999.005 215.031 1000.56 214.313C1001.33 213.954 1002.06 213.83 1002.71 213.926C1003.36 214.022 1003.93 214.337 1004.4 214.847C1005.34 215.863 1005.88 217.65 1005.88 220.019C1005.87 222.243 1005.4 224.988 1004.33 228.111L1004.1 228.741L1004.1 228.742L1003.89 229.256ZM1035.78 243.362C1033.61 244.433 1031.8 244.576 1030.35 243.754C1028.91 242.934 1027.85 241.164 1027.14 238.461C1026.44 235.755 1026.1 232.1 1026.1 227.489C1026.1 224.569 1026.21 222.223 1026.44 220.442C1026.67 218.666 1027.02 217.441 1027.49 216.773C1027.73 216.438 1028 216.237 1028.31 216.183C1028.62 216.13 1028.96 216.228 1029.31 216.459C1030.01 216.919 1030.83 217.927 1031.75 219.462C1033.28 221.601 1035.41 223.129 1037.63 223.892C1039.71 224.608 1041.84 224.651 1043.6 223.902L1043.95 223.742C1045.11 223.05 1046.11 222.597 1046.96 222.352C1047.82 222.108 1048.53 222.072 1049.09 222.221C1049.65 222.369 1050.07 222.703 1050.33 223.187C1050.59 223.67 1050.69 224.297 1050.65 225.034C1050.58 226.508 1049.92 228.439 1048.71 230.575C1047.57 232.579 1045.94 234.767 1043.84 236.934L1043.42 237.368C1040.49 240.289 1037.95 242.292 1035.78 243.362Z" fill="#FFF8E2" stroke="#FFF8E2" stroke-width="0.133333"/>
<path d="M338.349 310.225C342.16 310.657 345.762 310.413 348.463 309.374L348.991 309.155C350.384 308.536 353.12 307.998 356.844 307.537C360.571 307.076 365.297 306.692 370.674 306.385C380.085 305.847 391.495 305.545 403.051 305.477L408.007 305.463H408.008C423.676 305.77 436.269 305.463 445.328 304.465C449.858 303.966 453.502 303.294 456.203 302.441C458.74 301.641 460.433 300.684 461.256 299.573L461.409 299.349L461.41 299.347C462.013 298.443 462.321 296.809 462.36 294.611C462.398 292.417 462.168 289.675 461.707 286.566C460.786 280.349 458.943 272.672 456.487 264.994C454.027 257.617 452.184 249.778 451.185 243.092C450.685 239.748 450.397 236.692 450.349 234.125C450.304 231.719 450.469 229.738 450.872 228.351L450.956 228.082L450.958 228.079C451.88 225.775 452.65 224.041 453.432 222.882C454.214 221.722 455.02 221.124 456.013 221.124C454.997 221.124 458.146 221.713 459.615 222.866C461.088 224.021 462.894 225.751 465.197 228.054C468.898 231.447 471.514 236.684 473.282 243.757C474.94 250.388 475.854 258.639 476.215 268.507L476.279 270.502V303.005H556.033L557.871 283.401C558.638 275.585 555.994 266.573 551.024 257.448C546.054 248.324 538.761 239.093 530.239 230.84C521.718 222.586 511.969 215.312 502.086 210.102C492.203 204.892 482.19 201.747 473.141 201.747C469.752 201.747 466.669 200.977 464.431 199.819C463.312 199.24 462.402 198.564 461.771 197.836C461.14 197.108 460.784 196.324 460.784 195.535C460.785 193.491 462.555 191.978 465.573 190.978C468.598 189.977 472.908 189.477 478.057 189.477C488.356 189.477 502.033 191.475 515.555 195.47C521.696 197.006 527.836 197.926 533.207 198.08C538.578 198.233 543.172 197.62 546.23 196.093V196.092C548.38 194.863 550.08 194.088 551.392 193.942C552.05 193.869 552.614 193.954 553.089 194.223C553.564 194.493 553.942 194.942 554.235 195.585C554.817 196.866 555.066 198.934 555.057 201.939C555.048 204.572 554.841 207.932 554.481 212.127L554.317 213.976C548.225 276.721 608.617 323.159 673.744 306.485L675.283 306.079C682.038 304.237 689.254 301.473 695.473 298.555C701.304 295.82 706.253 292.951 709.121 290.584L709.667 290.117C711.97 287.814 713.777 286.084 715.297 284.92C716.817 283.756 718.06 283.149 719.234 283.11C720.41 283.071 721.501 283.602 722.717 284.673C723.78 285.609 724.944 286.965 726.351 288.73L726.969 289.511C729.114 292.269 732.64 295.337 736.708 298.1C740.521 300.69 744.806 303.01 748.865 304.553L749.674 304.852C752.047 305.694 755.776 306.356 760.497 306.851C765.217 307.347 770.925 307.676 777.256 307.853C789.918 308.208 805.067 307.959 819.775 307.229C834.482 306.5 848.747 305.29 859.642 303.725C865.089 302.943 869.692 302.072 873.085 301.129C874.782 300.657 876.175 300.167 877.219 299.663C878.2 299.189 878.863 298.706 879.187 298.219L879.246 298.122L879.252 298.114C879.55 297.742 879.778 297.158 879.937 296.38C880.095 295.603 880.183 294.637 880.207 293.507C880.255 291.245 880.045 288.33 879.622 284.952C878.778 278.196 877.089 269.597 874.939 260.689C864.048 221.359 863.878 174.885 874.427 120.097L874.938 117.482C877.703 101.814 879.238 90.2959 879.545 82.1589C879.699 78.0906 879.545 74.8703 879.085 72.4001C878.654 70.0833 877.956 68.4321 874.995 67.3601L876.799 67.1541C875.581 65.9365 873.501 64.884 870.767 63.9968C868.034 63.1102 864.655 62.3913 860.851 61.8347C853.242 60.7216 843.933 60.2602 834.68 60.4138C825.427 60.5674 816.232 61.3351 808.854 62.6785C805.164 63.3501 801.931 64.1655 799.371 65.1189C796.97 66.0135 795.17 67.0273 794.141 68.1511L793.946 68.3777C791.502 71.432 790.427 75.714 790.734 82.3123C791.04 88.9108 792.729 97.8154 795.801 110.104C798.72 121.011 800.909 129.269 802.302 135.348C802.998 138.388 803.495 140.884 803.784 142.894C804.074 144.904 804.157 146.432 804.022 147.536C803.886 148.638 803.53 149.334 802.926 149.648C802.325 149.961 801.502 149.882 800.466 149.502C798.651 148.835 796.125 147.217 792.848 144.972L791.398 143.972H791.397C770.858 129.474 746.16 131.625 727.831 149.259L726.963 150.11L711.602 165.472L711.558 165.516L711.511 165.475L696.763 152.571L696.761 152.569C688.173 144.288 672.521 138.606 655.782 136.302C639.306 134.035 621.794 135.043 608.956 140.052L608.349 140.293C603.133 142.44 596.687 146.431 590.545 151.115C584.787 155.506 579.3 160.502 575.349 165.156L574.579 166.082L574.578 166.083L572.077 169.008C569.721 171.747 567.792 173.932 566.214 175.582C565.162 176.682 564.264 177.546 563.499 178.178C562.735 178.81 562.099 179.215 561.569 179.391C561.035 179.569 560.6 179.518 560.257 179.226C559.92 178.94 559.683 178.43 559.514 177.72C559.176 176.3 559.1 174.026 559.1 170.956C559.1 160.982 556.568 152.893 552.113 146.809C547.659 140.726 541.278 136.644 533.572 134.688C518.4 130.838 498.086 135.235 477.243 148.848L476.25 149.504C470.104 154.113 464.11 157.802 459.421 160.108C457.077 161.261 455.056 162.07 453.504 162.475C452.728 162.678 452.066 162.78 451.538 162.772C451.016 162.765 450.612 162.649 450.363 162.404C450.236 162.317 450.132 162.172 450.048 161.979C449.963 161.784 449.895 161.534 449.844 161.236C449.741 160.64 449.701 159.838 449.715 158.857C449.744 156.895 449.994 154.203 450.416 150.976C451.156 145.329 452.424 138.034 453.965 130.124L454.641 126.699L454.642 126.697C458.942 108.882 460.784 87.3827 460.17 78.7878C459.556 75.102 458.981 72.3112 457.826 70.1921C456.674 68.0776 454.941 66.6276 451.997 65.6335C449.05 64.6382 444.891 64.1012 438.891 63.8132C432.892 63.5253 425.059 63.4861 414.766 63.4861H371.821V81.8542H371.82C372.415 91.3793 374.164 110.124 377.065 123.57L377.349 124.854V124.856C378.271 129.772 378.924 133.692 379.289 136.699C379.654 139.704 379.733 141.806 379.5 143.085C379.384 143.723 379.188 144.17 378.899 144.417C378.604 144.668 378.227 144.701 377.78 144.548C377.337 144.395 376.816 144.055 376.216 143.546C375.766 143.163 375.268 142.682 374.723 142.109L374.167 141.51C372.95 140.446 370.697 139.45 367.511 138.557C364.328 137.666 360.222 136.879 355.308 136.226C345.48 134.921 332.425 134.153 317.066 134.153C288.804 134.153 267.615 137.225 251.958 143.902C236.549 150.474 226.496 160.538 220.331 174.61L220.041 175.283V175.284L218.461 178.875C215.379 185.845 212.816 191.434 211.807 193.567L211.437 194.336C211.388 194.433 211.299 194.498 211.184 194.536C211.069 194.574 210.925 194.588 210.755 194.581C210.415 194.567 209.958 194.471 209.4 194.302C208.281 193.965 206.741 193.33 204.897 192.446C201.437 190.788 196.898 188.253 192.039 185.157L191.065 184.531L172.017 172.856L171.93 172.802L172.013 172.745L190.446 159.843V159.842C201.497 151.553 208.553 142.039 211.62 131.456C214.592 121.204 213.822 109.94 209.306 97.8035L208.858 96.6287C205.788 89.4139 202.144 83.5453 197.265 78.8005C192.386 74.0561 186.27 70.4319 178.251 67.7078C162.21 62.2582 138.563 60.4138 102.002 60.4138C82.033 60.4138 65.5981 61.0286 53.7727 62.1804C47.8597 62.7564 43.1003 63.4663 39.6291 64.3005C37.8936 64.7177 36.4819 65.1658 35.4094 65.6423C34.3385 66.1182 33.614 66.6193 33.2395 67.1404C33.0147 67.5917 32.8341 68.2827 32.7004 69.1902C32.5665 70.0989 32.48 71.2199 32.4416 72.5242C32.3649 75.1325 32.4802 78.4713 32.7873 82.3103C33.3632 89.5085 34.6136 98.4621 36.5393 107.652L36.9328 109.492L36.9338 109.493C43.4838 141.649 43.6868 159.964 35.8723 270.573L35.091 281.569L33.8654 303.008L95.2443 304.848C131.807 305.77 153.152 305.616 167.814 302.622C175.142 301.125 180.799 298.92 185.851 295.785C190.588 292.846 194.795 289.087 199.352 284.327L200.268 283.362L215.015 267.385L215.069 267.328L215.116 267.39L227.406 283.367L227.405 283.368C235.692 293.802 247.816 301.629 260.555 305.773C273.096 309.853 286.227 310.361 296.873 306.28L297.378 306.082L297.38 306.081C309.067 301.775 317.691 301.771 326.316 306.7L326.315 306.701C329.993 308.54 334.286 309.765 338.349 310.225ZM125.966 152.588C119.516 152.588 115.645 151.822 113.396 149.262C112.271 147.983 111.558 146.26 111.124 143.978C110.691 141.696 110.537 138.849 110.537 135.315C110.537 130.396 110.999 125.475 111.768 121.476C112.152 119.477 112.614 117.707 113.134 116.282C113.621 114.948 114.161 113.909 114.741 113.269L114.859 113.146L114.861 113.144C118.265 110.05 123.67 109.593 129.059 111.287C134.281 112.928 139.503 116.593 142.904 121.861L143.228 122.376C147.847 129.767 148.005 137.32 144.765 143.029C141.525 148.738 134.895 152.588 125.966 152.588ZM374.211 257.052C373.799 257.051 373.417 256.811 373.066 256.38C372.714 255.948 372.385 255.316 372.078 254.51C371.465 252.899 370.934 250.577 370.488 247.729C369.594 242.031 369.037 234.212 368.845 225.723C368.473 209.277 369.47 190.302 372.049 179.347L372.303 178.313L372.305 178.308C373.535 174.618 375.074 171.233 376.691 168.768C377.499 167.536 378.329 166.533 379.152 165.836C379.974 165.139 380.795 164.744 381.585 164.744C382.377 164.744 383.123 165.14 383.793 165.84C384.463 166.539 385.063 167.546 385.564 168.78C386.566 171.248 387.182 174.636 387.182 178.33C387.182 193.697 385.184 213.364 382.572 229.189C381.267 237.102 379.807 244.057 378.365 249.034C377.645 251.522 376.928 253.519 376.237 254.895C375.891 255.583 375.549 256.118 375.215 256.483C374.882 256.847 374.546 257.052 374.211 257.052ZM625.937 224.478C622.742 225.71 619.86 225.948 617.772 224.976C615.676 224.002 614.402 221.821 614.402 218.271C614.402 217.031 614.789 215.409 615.472 213.534C616.155 211.658 617.135 209.524 618.326 207.257C620.56 203.005 623.537 198.281 626.687 193.908L627.319 193.038L627.321 193.036C632.236 186.891 636.084 183.193 639.325 181.649C640.948 180.876 642.422 180.642 643.803 180.914C645.183 181.186 646.461 181.963 647.696 183.198C650.168 185.67 651.252 188.455 650.865 192.163C650.504 195.632 648.856 199.909 645.866 205.494L645.25 206.629L645.249 206.63L644.752 207.459C639.541 215.951 632.129 222.091 625.937 224.478ZM787.146 262.504C786.044 262.7 785.026 262.324 783.942 261.404C782.994 260.601 781.991 259.378 780.828 257.747L780.321 257.022L780.319 257.02C779.468 255.706 778.698 253.73 778.014 251.271C777.329 248.811 776.728 245.863 776.219 242.602C775.201 236.08 774.548 228.3 774.318 220.655C774.087 213.01 774.279 205.498 774.951 199.512C775.288 196.52 775.744 193.907 776.328 191.848C776.876 189.922 777.538 188.471 778.327 187.653L778.487 187.498C782.497 183.182 787.286 182.251 791.538 184.029C795.654 185.75 799.252 190.003 801.153 196.145L801.331 196.746V196.747C807.478 220.106 805.639 241.639 795.789 254.567H795.79L795.788 254.568L795.057 255.464C793.391 257.489 792.003 259.076 790.79 260.23C789.406 261.548 788.241 262.308 787.146 262.504ZM288.8 260.124C287.096 260.124 285.621 259.619 284.35 258.513C283.081 257.409 282.019 255.708 281.134 253.321C279.364 248.549 278.288 241.012 277.673 229.952C276.444 212.746 276.905 200.599 279.059 193.213C280.136 189.52 281.639 187.006 283.577 185.649C285.518 184.291 287.882 184.101 290.658 185.025L290.659 185.024C291.916 185.338 293.004 186.435 293.929 188.256C294.855 190.078 295.624 192.64 296.239 195.907C297.47 202.442 298.084 211.818 298.084 223.802C298.084 237.933 297.623 247.006 296.238 252.546C295.546 255.316 294.62 257.212 293.398 258.415C292.173 259.62 290.657 260.124 288.8 260.124ZM123.516 255.822C120.599 256.282 118.322 256.476 116.551 256.051C114.772 255.623 113.508 254.57 112.617 252.556C111.729 250.548 111.21 247.58 110.912 243.316C110.615 239.051 110.537 233.479 110.537 226.26C110.537 219.039 110.615 213.469 110.922 209.203C111.229 204.939 111.767 201.971 112.695 199.963C113.624 197.948 114.946 196.896 116.811 196.469C118.668 196.043 121.061 196.237 124.133 196.698L124.132 196.699C132.498 197.894 139.693 204.875 143.491 214.82L143.849 215.792C147.539 226.249 147.388 235.64 143.845 242.727C140.3 249.817 133.367 254.591 123.517 255.822H123.516ZM645.179 262.627L643.96 262.582H643.959C641.349 262.428 639.499 262.235 638.445 261.955C638.181 261.885 637.964 261.808 637.797 261.724C637.631 261.641 637.507 261.547 637.437 261.438C637.364 261.326 637.353 261.203 637.402 261.075C637.448 260.951 637.55 260.826 637.697 260.698C637.993 260.442 638.495 260.155 639.2 259.832C639.907 259.508 640.824 259.144 641.953 258.736C644.211 257.919 647.323 256.921 651.317 255.692V255.691H651.32C662.622 252.717 678.538 245.13 687.335 238.519L688.163 237.883L688.165 237.882C692.926 234.349 696.462 231.698 699.084 229.921C700.395 229.032 701.48 228.36 702.378 227.906C703.275 227.452 703.991 227.212 704.563 227.192C705.14 227.172 705.57 227.378 705.883 227.808C706.192 228.234 706.383 228.874 706.503 229.717C706.744 231.403 706.705 233.945 706.705 237.321C706.705 238.722 706.122 240.185 705.059 241.668C703.995 243.151 702.449 244.659 700.516 246.149C696.65 249.131 691.229 252.052 685.004 254.589C672.944 259.502 657.853 262.974 645.179 262.627Z" fill="#FFF8E2" stroke="#FFF8E2" stroke-width="0.133333"/>
<path d="M850.127 413.537C858.735 414.798 867.638 411.963 877.676 405.085L878.651 404.408H878.652C888.78 397.349 894.912 388.299 896.674 379.486C898.382 370.95 895.991 362.633 889.154 356.55L888.479 355.969C885.105 353.209 882.047 351.682 878.687 351.529C875.537 351.386 872.111 352.45 867.902 354.86L867.049 355.36L867.045 355.363L866.239 355.754C858.194 359.543 850.684 359.562 843.716 356.313L843.021 355.977L843.019 355.976C836.28 352.3 828.315 352.3 821.576 355.976H821.575C814.53 359.959 811.166 366.081 811.472 373.197C811.769 380.096 815.516 387.939 822.727 395.679L823.436 396.427L823.437 396.429C832.65 406.563 841.239 412.234 850.127 413.537Z" fill="#FFF8E2" stroke="#FFF8E2" stroke-width="0.133333"/>
<path d="M17.2773 414.856C19.5685 414.938 22.238 414.708 25.125 414.228C30.8991 413.269 37.5388 411.312 43.7568 408.855C49.9752 406.398 55.7687 403.444 59.8525 400.491C61.8947 399.014 63.5064 397.541 64.5303 396.133C65.5546 394.724 65.9837 393.39 65.6836 392.189H65.6826L65.6816 392.18C65.3775 389.749 63.7051 387.614 61.2607 386.239C58.9697 384.95 56.005 384.332 52.8711 384.763L52.2422 384.864L52.2363 384.865L50.1846 385.079C48.2685 385.275 46.7594 385.412 45.6553 385.441C44.92 385.46 44.3574 385.432 43.9727 385.339C43.592 385.246 43.3533 385.081 43.3301 384.804C43.319 384.672 43.3594 384.524 43.4414 384.363C43.5236 384.201 43.6512 384.02 43.8203 383.819C44.1586 383.417 44.6727 382.924 45.3594 382.329C46.3904 381.435 47.8164 380.304 49.6309 378.886L51.5742 377.372C54.6394 374.919 56.9364 372.009 58.1602 369.256C59.3467 366.586 59.5193 364.077 58.4287 362.272L58.3193 362.099L58.3174 362.097C55.8631 358.109 53.4219 355.983 50.1533 355.831C46.8749 355.678 42.7428 357.508 36.9053 361.503H36.9062L36.9033 361.505L36.4248 361.794C33.9556 363.236 30.3314 364.656 26.4404 365.737C22.2892 366.89 17.8276 367.66 14.1328 367.66C9.22303 367.66 5.70908 368.581 3.42285 370.562C1.1391 372.542 0.0664234 375.592 0.0664062 379.883C0.0664062 382.493 0.220258 384.521 0.65918 386.048C1.09739 387.572 1.81833 388.591 2.9502 389.195C4.08569 389.801 5.64546 389.993 7.77246 389.84C9.89797 389.686 12.5814 389.189 15.959 388.422V388.421C18.8787 387.652 21.3012 387.114 23.2441 386.826C25.1852 386.538 26.6548 386.498 27.666 386.731C28.1723 386.848 28.5681 387.034 28.8506 387.297C29.1342 387.56 29.2998 387.897 29.3496 388.304C29.436 389.013 29.1745 389.938 28.5928 391.085L28.3242 391.591L28.3213 391.595L28.0781 391.941C26.8121 393.661 24.7682 395.224 22.458 396.38C19.9932 397.612 17.2176 398.385 14.7471 398.385C9.85471 398.385 6.97014 400.827 6.36328 403.937C5.75552 407.052 7.42539 410.869 11.7109 413.624L11.71 413.625C13.0791 414.384 14.9869 414.775 17.2773 414.856Z" fill="#FFF8E2" stroke="#FFF8E2" stroke-width="0.133333"/>
<path d="M164.063 597.96C194.788 597.96 212.449 597.653 224.502 595.81C235.795 594.084 242.163 591.01 249.744 585.574L251.278 584.455L269.711 570.322L269.803 570.251L269.818 570.366L271.661 584.499C272.122 587.571 272.658 589.939 273.821 591.769C274.982 593.596 276.772 594.894 279.757 595.812C282.744 596.731 286.923 597.269 292.855 597.577C298.787 597.884 306.466 597.96 316.451 597.96H359.391L357.554 576.528C356.018 563.311 355.403 521.521 355.48 479.353C355.555 438.502 356.278 397.287 357.44 381.34L357.554 379.877V379.876L359.39 358.439L315.22 356.598C296.784 355.984 285.578 355.985 278.98 357.135C275.682 357.711 273.546 358.572 272.235 359.778C270.928 360.981 270.432 362.535 270.432 364.52C270.432 367.442 270.087 369.645 269.321 371.119C268.937 371.857 268.448 372.414 267.842 372.787C267.235 373.159 266.516 373.343 265.68 373.343C264.012 373.343 261.868 372.607 259.187 371.146C256.84 369.867 254.074 368.03 250.845 365.634L249.434 364.574C248.521 363.889 247.143 363.234 245.357 362.612C243.572 361.99 241.383 361.402 238.849 360.85C233.782 359.747 227.339 358.787 220.001 357.981C205.323 356.368 187.064 355.369 169.054 355.062C151.044 354.755 133.285 355.14 119.606 356.292C112.767 356.867 106.949 357.635 102.632 358.604C100.473 359.088 98.6915 359.622 97.3455 360.207C95.9988 360.791 95.0994 361.422 94.6873 362.094C94.4621 362.546 94.2812 363.237 94.1472 364.146C94.0134 365.055 93.9268 366.175 93.8885 367.479C93.8117 370.087 93.927 373.427 94.2342 377.266C94.81 384.464 96.0605 393.417 97.9861 402.607L98.3797 404.448L98.3806 404.449C103.144 427.078 104.446 457.779 102.288 491.522L102.068 494.797V494.798L101.615 500.393C100.573 513.585 99.6491 527.615 98.8426 540.116C98.0361 552.616 97.3465 563.589 96.7752 570.666L96.5379 573.454L95.3133 597.96H164.063ZM183.726 447.543C181.418 447.543 179.525 447.274 177.986 446.586C176.445 445.898 175.264 444.793 174.374 443.129C173.485 441.468 172.888 439.25 172.513 436.337C172.139 433.424 171.984 429.811 171.984 425.355C171.984 420.592 172.1 416.864 172.446 413.979C172.792 411.096 173.369 409.047 174.3 407.651C175.233 406.251 176.519 405.513 178.262 405.242C179.785 405.005 181.658 405.123 183.955 405.465L184.966 405.625C188.661 406.241 192.817 407.781 196.433 409.935C200.046 412.088 203.128 414.859 204.674 417.945C208.685 424.117 207.757 431.521 203.675 437.375C199.592 443.23 192.351 447.543 183.726 447.543ZM279.978 515.946C279.738 515.963 279.485 515.847 279.221 515.625C278.957 515.403 278.673 515.067 278.367 514.628C277.296 513.094 275.925 510.25 274.159 506.375L273.378 504.652L273.377 504.65C271.229 499.435 267.393 493.449 262.941 487.999C258.767 482.889 254.054 478.254 249.69 475.167L248.823 474.57L232.847 464.124L232.757 464.065L232.85 464.01L251.896 452.952V452.951C256.806 449.882 261.411 445.892 264.786 442.056C266.474 440.138 267.853 438.26 268.81 436.556C269.768 434.851 270.299 433.327 270.3 432.115C270.3 429.644 271.071 427.326 272.231 425.625C273.389 423.926 274.943 422.831 276.511 422.831C277.006 422.831 277.465 423.181 277.888 423.815C278.314 424.452 278.714 425.391 279.09 426.603C279.84 429.028 280.494 432.566 281.032 437.022C282.108 445.936 282.722 458.536 282.722 473.286L282.612 481.847C282.505 489.874 282.398 496.315 282.232 501.342C282.011 508.041 281.686 512.236 281.107 514.32C280.962 514.841 280.8 515.236 280.617 515.505C280.433 515.775 280.222 515.928 279.978 515.946ZM191.081 549.082C186.733 551.164 182.023 551.242 177.547 548.31C177.15 548.072 176.769 547.649 176.405 547.069C176.041 546.488 175.691 545.744 175.359 544.858C174.695 543.086 174.098 540.739 173.598 537.972C172.599 532.437 171.984 525.213 171.984 517.529C171.984 511.231 172.061 506.35 172.359 502.603C172.657 498.857 173.176 496.234 174.065 494.456C174.958 492.671 176.223 491.736 178 491.367C179.549 491.045 181.486 491.154 183.901 491.495L184.966 491.654C188.662 492.27 192.664 493.81 196.203 495.887C199.52 497.834 202.436 500.257 204.312 502.839L204.674 503.358L204.675 503.361C210.837 513.529 208.523 527.69 202.448 537.841C199.41 542.918 195.426 547 191.081 549.082Z" fill="#FFF8E2" stroke="#FFF8E2" stroke-width="0.133333"/>
<path d="M27.6509 471.99C32.5298 471.99 36.8012 467.717 36.8012 462.838C36.8013 461.289 37.2276 459.931 38.101 458.766C38.9739 457.602 40.291 456.636 42.0649 455.865C45.611 454.323 50.9987 453.555 58.3745 453.555C66.0548 453.555 71.4185 452.94 74.8608 451.41C76.58 450.646 77.817 449.655 78.6245 448.401C79.432 447.147 79.8139 445.624 79.8139 443.79C79.8139 441.797 79.5458 440.237 78.8354 439.072C78.1269 437.91 76.9725 437.131 75.1801 436.711C73.3855 436.291 70.955 436.233 67.7026 436.511C64.8575 436.755 61.3871 437.255 57.1684 437.994L55.3139 438.325H55.312C47.323 439.554 41.1713 440.016 37.0151 439.631C34.938 439.439 33.3523 439.034 32.2837 438.403C31.2112 437.769 30.6567 436.904 30.6567 435.801C30.6567 432.142 28.2205 429.109 24.5786 429.109C23.8469 429.109 23.0962 429.696 22.3784 430.796C21.6633 431.893 20.9936 433.48 20.4184 435.436C19.2684 439.346 18.5005 444.717 18.5005 450.549C18.5005 457.92 19.2688 463.286 20.7993 466.806C21.5642 468.565 22.5183 469.861 23.6587 470.716C24.7982 471.571 26.1279 471.99 27.6509 471.99Z" fill="#FFF8E2" stroke="#FFF8E2" stroke-width="0.133333"/>
<path d="M552.552 599.363C561.975 600.764 572.61 601.263 583.282 600.879C604.298 600.123 625.452 595.944 637.816 588.496L638.398 588.138H638.399C643.314 585.22 647.08 583.028 650.146 581.548C653.211 580.068 655.583 579.296 657.709 579.218C659.838 579.141 661.714 579.761 663.786 581.052C665.597 582.181 667.562 583.825 669.98 585.967L671.044 586.917C673.186 588.829 676.393 590.515 680.405 591.97C684.416 593.426 689.227 594.65 694.572 595.638C705.263 597.615 718.086 598.651 730.91 598.728C743.734 598.805 756.557 597.922 767.248 596.06C772.594 595.129 777.405 593.954 781.416 592.532C785.177 591.199 788.231 589.65 790.362 587.886L790.776 587.531C793.541 585.074 795.657 583.228 797.389 582.015C799.119 580.804 800.479 580.215 801.732 580.293C802.987 580.372 804.116 581.118 805.387 582.524C806.34 583.579 807.38 585.011 808.617 586.828L809.925 588.773L809.927 588.775C811.613 591.534 813.372 593.637 816.162 595.243C818.955 596.849 822.785 597.961 828.619 598.729C840.289 600.265 859.946 600.418 895.28 600.418C917.093 600.418 937.83 599.804 953.728 598.805C961.677 598.306 968.415 597.711 973.473 597.048C976.002 596.717 978.109 596.37 979.737 596.009C981.367 595.648 982.508 595.277 983.112 594.9V594.899C984.952 593.672 986.365 592.45 987.347 590.934C988.328 589.419 988.882 587.606 988.997 585.196C989.213 580.671 987.879 574.052 984.927 563.368L984.315 561.175V561.174C979.09 541.506 976.631 522.911 976.939 508.617C977.092 501.47 977.938 495.395 979.477 490.796C980.967 486.344 983.112 483.264 985.922 481.949L986.196 481.827L986.199 481.826C990.52 480.283 994.232 480.898 997.238 483.373C1000.24 485.843 1002.53 490.161 1004.03 496.004C1006.93 507.328 1006.88 524.417 1003.24 545.031L1002.88 547.037C1000.57 559.48 999.116 569.153 998.991 576.626C998.867 584.1 1000.08 589.362 1003.09 592.992C1006.11 596.621 1010.95 598.634 1018.12 599.583C1024.83 600.474 1033.59 600.428 1044.78 599.913L1047.05 599.804H1047.05C1052.43 599.574 1057.09 599.535 1061.1 599.451C1065.11 599.367 1068.47 599.237 1071.26 598.825C1074.05 598.413 1076.26 597.719 1077.97 596.51C1079.68 595.303 1080.91 593.578 1081.71 591.093C1082.51 588.606 1082.9 585.359 1082.93 581.111C1082.97 576.863 1082.66 571.618 1082.07 565.138C1081.05 553.797 1079.18 538.679 1076.88 518.506L1075.87 509.547C1073.72 490.5 1071.26 475.14 1068.5 463.545C1065.82 452.31 1062.85 444.62 1059.61 440.531L1059.29 440.148C1052.86 433.102 1040.44 429.415 1027.24 429.185C1014.24 428.958 1000.51 432.08 991.011 438.615L990.562 438.928L990.561 438.929L988.165 440.549C985.904 442.062 984.033 443.25 982.432 444.108C980.298 445.252 978.633 445.816 977.156 445.777C975.676 445.738 974.394 445.094 973.024 443.849C971.826 442.761 970.556 441.209 969.023 439.192L968.349 438.299L968.348 438.298C965.283 434.007 962.071 431.561 957.252 430.567C952.426 429.571 945.985 430.03 936.461 431.566H936.46C930.013 432.794 922.49 434.944 915.734 437.324C908.976 439.704 902.99 442.314 899.617 444.46H899.618C896.546 446.457 894.162 447.919 892.266 448.824C890.372 449.727 888.953 450.081 887.817 449.846C886.675 449.61 885.836 448.783 885.093 447.374C884.443 446.141 883.86 444.453 883.21 442.301L882.927 441.35V441.348C882.008 437.674 880.211 434.884 877.509 432.946C874.805 431.006 871.189 429.914 866.627 429.646C857.501 429.109 844.607 431.87 827.711 437.708H827.712C817.574 441.394 811.112 443.242 805.184 443.166C799.624 443.093 794.541 441.328 787.344 437.816L785.875 437.09L785.874 437.089C773.39 430.55 756.292 428.614 729.54 430.175L726.921 430.337C709.407 431.566 698.817 432.796 691.069 435.557C683.812 438.144 679.045 442.078 673.418 448.631L672.279 449.977L672.278 449.979L671.371 450.991C669.287 453.294 667.436 455.186 665.821 456.667C663.977 458.357 662.436 459.515 661.198 460.133C659.965 460.75 659.01 460.843 658.363 460.358C658.041 460.116 657.804 459.737 657.648 459.229C657.491 458.721 657.414 458.08 657.414 457.308C657.414 453.493 655.355 449.823 651.628 446.46C647.901 443.098 642.514 440.048 635.874 437.476C622.596 432.333 604.323 429.109 584.359 429.109C569.613 429.109 559.636 429.877 551.58 432.102C544.03 434.187 538.165 437.553 531.643 442.772L530.329 443.841L513.124 458.588L513.081 458.625L513.038 458.588L495.833 443.84H495.832C484.788 434.33 466.833 429.262 448.023 428.801C429.508 428.348 410.178 432.359 395.818 440.975L395.138 441.388V441.389C368.433 457.658 355.845 487.283 356.843 516.605C357.841 545.927 372.424 574.938 400.051 589.98L400.05 589.981C412.327 596.426 431.21 600.111 449.869 600.649C468.238 601.178 486.374 598.655 497.765 592.723L498.302 592.438L498.304 592.437C505.064 589.057 509.685 587.36 514.156 587.36C518.35 587.36 522.403 588.852 527.958 591.824L529.09 592.438C534.917 595.659 543.127 597.962 552.552 599.363ZM900.085 554.989C899.66 555.146 899.24 555.128 898.83 554.942C898.423 554.757 898.029 554.407 897.65 553.907C896.891 552.907 896.177 551.29 895.524 549.118C892.991 540.699 891.326 523.848 891.504 501.852L891.527 499.708C891.681 489.415 891.796 481.618 892.007 475.991C892.113 473.177 892.243 470.904 892.413 469.133C892.584 467.364 892.795 466.09 893.067 465.276C893.202 464.869 893.355 464.571 893.529 464.382C893.707 464.191 893.911 464.112 894.138 464.154C894.358 464.195 894.59 464.349 894.833 464.594C895.077 464.841 895.34 465.187 895.624 465.625C896.761 467.378 898.261 470.648 900.257 475.101L900.256 475.102C905.175 484.943 908.864 501.538 908.865 511.994C909.48 521.831 907.636 537.199 905.176 544.583H905.177C904.332 547.811 903.475 550.255 902.625 551.968C902.2 552.825 901.775 553.502 901.353 554.002C900.93 554.503 900.508 554.832 900.085 554.989ZM813.164 544.507C812.837 544.643 812.544 544.637 812.29 544.468C812.042 544.303 811.844 543.989 811.684 543.538C811.523 543.085 811.397 542.484 811.301 541.733C811.108 540.231 811.031 538.115 811.031 535.349C811.031 525.544 805.671 516.344 795.618 508.209C785.88 500.329 771.744 493.454 753.835 488.005L752.091 487.483C735.499 482.874 723.2 477.494 717.582 473.261C716.178 472.203 715.186 471.214 714.651 470.321C714.114 469.427 714.029 468.617 714.465 467.94C714.897 467.27 715.828 466.748 717.272 466.393C718.537 466.082 720.207 465.896 722.304 465.854L723.23 465.844L723.236 465.845C729.2 466.442 740.351 469.924 748.869 474.614L749.685 475.071C758.891 480.288 770.555 483.205 780.685 483.588C785.749 483.78 790.428 483.338 794.221 482.237C797.896 481.169 800.733 479.484 802.292 477.164L802.44 476.937V476.936C803.29 475.621 804.262 474.831 805.315 474.505C806.367 474.18 807.491 474.324 808.64 474.857C810.934 475.922 813.342 478.547 815.533 482.161C819.918 489.391 823.454 500.617 823.454 511.383C823.454 516.612 822.685 522.456 821.532 527.606C820.452 532.432 819.033 536.657 817.589 539.2L817.3 539.686L817.299 539.687L816.849 540.355C815.822 541.86 814.966 542.982 814.256 543.692C813.851 544.097 813.488 544.373 813.164 544.507ZM751.542 564.891C749.06 567.374 745.497 567.984 739.956 566.445C734.763 565.002 727.817 561.668 718.361 556.194L716.437 555.07C707.53 549.848 699.393 546.164 692.486 544.092C685.794 542.085 680.265 541.593 676.313 542.676L675.935 542.787H675.934C673.781 543.402 671.933 543.787 670.372 543.922C668.811 544.057 667.532 543.942 666.521 543.553C665.507 543.163 664.765 542.499 664.277 541.543C663.791 540.59 663.56 539.349 663.56 537.807C663.56 528.004 657.432 518.189 646.687 509.515C636.278 501.114 621.544 493.79 603.88 488.593L602.161 488.097C592.02 485.331 582.8 482.104 576.113 479.107C572.771 477.608 570.059 476.166 568.182 474.867C567.244 474.217 566.512 473.601 566.014 473.03C565.517 472.46 565.244 471.927 565.244 471.442C565.244 470.356 565.506 469.43 566.01 468.667C566.514 467.903 567.257 467.305 568.212 466.869C570.12 465.997 572.88 465.768 576.302 466.153C582.935 466.898 592.089 469.953 602.434 475.172L603.439 475.684H603.44C608.655 478.445 615.408 480.595 622.009 481.9C628.61 483.205 635.053 483.665 639.651 483.052V483.051C645.492 482.129 649.958 482.127 652.968 482.976C654.473 483.401 655.618 484.04 656.388 484.887C657.158 485.736 657.548 486.789 657.548 488.033C657.548 492.315 659.499 497.218 662.875 502.283C666.25 507.346 671.046 512.565 676.727 517.478C687.733 524.998 702.053 535.363 715.776 539.226L717.102 539.585C725.859 541.89 732.966 544.042 738.557 546.117C744.146 548.191 748.224 550.191 750.92 552.194C753.615 554.196 754.941 556.21 754.999 558.314C755.054 560.284 753.997 562.312 751.962 564.46L751.542 564.891ZM427.056 521.283C423.965 521.283 421.678 520.122 420.186 518.106C418.695 516.093 418.002 513.234 418.079 509.846C418.233 503.07 421.466 494.149 427.614 485.54V485.539C430.074 481.849 432.42 478.926 434.651 476.771C436.883 474.616 439.004 473.226 441.015 472.607C443.028 471.988 444.928 472.142 446.711 473.073C448.38 473.944 449.943 475.492 451.401 477.712L451.691 478.166C452.392 479.256 452.69 480.75 452.661 482.521C452.632 484.293 452.276 486.349 451.66 488.57C450.429 493.012 448.161 498.125 445.394 502.967C442.627 507.81 439.36 512.385 436.129 515.75C434.514 517.433 432.906 518.815 431.373 519.777C429.841 520.738 428.379 521.283 427.056 521.283ZM605.726 565.165C603.949 566.64 601.298 567.216 597.795 566.908C591.009 566.311 580.984 562.394 567.794 555.167L566.508 554.457C556.064 548.62 547.619 544.782 540.79 542.787C534.174 540.854 529.081 540.653 525.156 542.032L524.78 542.17C521.7 543.709 516.781 545.246 511.329 546.475C505.874 547.704 499.881 548.626 494.654 548.934H494.655C484.826 550.163 467.008 553.235 456.562 555.079H456.561C450.415 556.308 445.339 556.769 441.797 556.461C440.027 556.307 438.633 555.961 437.68 555.417C436.724 554.87 436.206 554.121 436.206 553.169C436.206 552.765 436.388 552.347 436.721 551.924C437.054 551.501 437.542 551.066 438.164 550.627C439.409 549.75 441.2 548.845 443.391 547.96C447.5 546.302 453.026 544.713 459.02 543.507L460.225 543.272L460.227 543.271C475.938 540.854 488.673 533.679 497.849 522.917L498.282 522.402L498.283 522.401L512.416 505.81L512.463 505.755L525.418 518.71C529.097 522.389 536.308 526.84 544.986 531.064C553.12 535.023 562.536 538.781 571.526 541.512L573.318 542.044C583.151 544.81 591.911 548.037 598.213 550.958C601.364 552.418 603.903 553.802 605.654 555.015C606.53 555.621 607.212 556.187 607.675 556.699C608.136 557.208 608.391 557.676 608.391 558.085C608.391 561.323 607.503 563.688 605.726 565.165Z" fill="#FFF8E2" stroke="#FFF8E2" stroke-width="0.133333"/>
<path d="M1144.76 679.073C1174.24 682.451 1199.88 676.001 1218.14 662.418C1236.41 648.835 1247.3 628.116 1247.3 602.943V574.526L1247.42 574.627L1260.32 586.302L1260.32 586.302C1270.74 595.5 1282.39 597.96 1321.11 597.96C1342.31 597.96 1354.74 597.499 1363.64 595.427C1372.54 593.357 1377.9 589.678 1384.97 583.231V583.23C1390.8 577.704 1394.79 572.335 1397.32 566.354C1399.85 560.374 1400.92 553.777 1400.92 545.795C1400.92 531.37 1396.47 519.867 1386.73 510.433C1377.29 501.292 1362.88 494.089 1342.72 488.062L1340.75 487.482C1325.08 482.873 1313.09 477.493 1307.4 473.261C1305.97 472.204 1304.94 471.214 1304.34 470.323C1303.74 469.433 1303.57 468.625 1303.9 467.946C1304.23 467.271 1305.05 466.749 1306.36 466.393C1307.68 466.037 1309.51 465.844 1311.89 465.844C1314.67 465.845 1319.28 466.923 1324.43 468.69C1329.58 470.457 1335.26 472.917 1340.18 475.683L1340.18 475.682C1345.4 478.138 1351.85 480.288 1358.14 481.67C1364.24 483.008 1370.19 483.625 1374.74 483.105L1375.17 483.051H1375.17C1382.24 482.436 1386.36 481.207 1388.72 478.236C1389.9 476.75 1390.65 474.822 1391.1 472.303C1391.55 469.784 1391.7 466.678 1391.7 462.839C1391.7 456.394 1390.63 451.337 1388.18 447.203C1385.88 443.328 1382.38 440.257 1377.4 437.613L1376.38 437.09H1376.38C1371.01 434.329 1363.38 432.333 1354.61 431.066C1345.83 429.799 1335.93 429.262 1326.02 429.416C1306.52 429.718 1287.02 432.7 1276.18 438.061L1275.67 438.318C1271.52 440.469 1268.25 442.083 1265.62 443.16C1262.99 444.236 1260.98 444.778 1259.35 444.778C1257.72 444.778 1256.48 444.233 1255.37 443.146C1254.27 442.063 1253.3 440.442 1252.23 438.293C1251.17 436.47 1248.72 434.893 1245.18 433.564C1241.64 432.237 1237.02 431.162 1231.63 430.337C1220.87 428.686 1207.05 428.033 1192.68 428.341C1178.32 428.648 1163.43 429.915 1150.51 432.103C1137.99 434.224 1127.34 437.208 1120.83 441.017L1120.21 441.388C1084.27 463.316 1071.29 513.659 1089.69 559.437L1090.13 560.517C1095.96 574.334 1103.94 584.461 1114.45 591.135C1124.96 597.809 1138 601.033 1153.97 601.033C1163.19 601.033 1169.65 601.647 1173.65 602.879C1175.66 603.495 1177.05 604.268 1177.87 605.203C1178.64 606.083 1178.9 607.104 1178.67 608.257L1178.61 608.489L1178.61 608.495L1178.51 608.783C1177.37 611.737 1174.83 613.995 1171.34 615.562C1167.74 617.18 1163.12 618.065 1157.97 618.219C1147.99 618.516 1135.99 616.072 1125.46 610.886L1124.45 610.377C1119.84 608.072 1116.27 606.345 1113.33 605.204C1110.4 604.063 1108.11 603.509 1106.04 603.548C1102.18 603.619 1099.12 605.766 1094.2 610.088L1093.18 610.981C1086.28 617.27 1082.87 624.321 1082.43 631.444C1081.99 638.568 1084.52 645.773 1089.51 652.369C1099.32 665.356 1118.66 675.973 1143.57 678.938L1144.76 679.073H1144.76ZM1162.49 557.045C1160.29 557.73 1157.8 556.876 1155.08 554.357L1154.54 553.831C1153.61 552.897 1152.76 551.195 1152 548.919C1151.24 546.64 1150.57 543.778 1149.99 540.516C1148.84 533.993 1148.07 525.867 1147.76 517.608C1147.45 509.349 1147.61 500.954 1148.3 493.893C1148.64 490.363 1149.12 487.164 1149.75 484.483C1150.34 481.97 1151.05 479.907 1151.9 478.449L1152.07 478.166C1154.38 474.475 1156.7 472.569 1158.92 472.316C1161.15 472.062 1163.24 473.472 1165.09 476.321C1166.94 479.172 1168.55 483.483 1169.82 489.074C1171.01 494.317 1171.89 500.691 1172.38 508.052L1172.47 509.536V509.538C1173.09 527.974 1171.55 541.965 1168.4 549.89C1166.82 553.851 1164.83 556.315 1162.49 557.045ZM1341.43 564.891C1338.95 567.374 1335.39 567.984 1329.85 566.445C1324.65 565.002 1317.71 561.668 1308.25 556.193L1306.33 555.07C1292.51 547.085 1279.31 542.943 1269.57 542.713C1264.7 542.598 1260.7 543.461 1257.92 545.303C1255.15 547.144 1253.58 549.965 1253.58 553.784C1253.58 554.862 1253.43 555.646 1253.13 556.123C1252.98 556.363 1252.79 556.528 1252.57 556.611C1252.34 556.694 1252.09 556.693 1251.81 556.613C1251.25 556.454 1250.59 555.983 1249.84 555.213C1249.18 554.537 1248.45 553.627 1247.66 552.482L1247.32 551.977L1247.31 551.975C1246.54 550.737 1245.77 548.655 1245.06 545.975C1244.35 543.294 1243.69 540.007 1243.16 536.357C1242.15 529.513 1241.55 521.385 1241.73 513.556L1241.77 511.996V481.273L1241.9 481.242L1251.73 499.677L1251.73 499.677C1254.49 504.59 1258.03 509.963 1261.56 514.646C1265.09 519.328 1268.61 523.316 1271.37 525.462C1274.13 527.301 1279.66 529.91 1286.41 532.598C1293.17 535.286 1301.16 538.051 1308.83 540.201L1308.83 540.2C1317.13 542.351 1323.89 544.387 1329.22 546.376C1334.56 548.364 1338.46 550.307 1341.04 552.271C1343.62 554.236 1344.89 556.23 1344.92 558.324C1344.95 560.285 1343.89 562.312 1341.85 564.461L1341.43 564.891Z" fill="#FFF8E2" stroke="#FFF8E2" stroke-width="0.133333"/>
<path d="M49.1587 506.401C61.1416 506.401 68.8124 505.94 73.4868 504.561C75.8228 503.871 77.4025 502.955 78.3989 501.759C79.3942 500.564 79.8139 499.083 79.8139 497.25C79.8139 495.419 79.357 493.898 78.313 492.636C77.2677 491.372 75.6287 490.36 73.2544 489.556C68.5031 487.946 60.8314 487.179 49.1557 486.872C37.173 486.872 29.5019 487.333 24.8276 488.712C22.4919 489.401 20.9118 490.317 19.9155 491.513C18.9202 492.707 18.5005 494.189 18.5005 496.022C18.5005 497.853 18.9583 499.373 20.0024 500.636C21.0477 501.9 22.6865 502.912 25.061 503.716C29.8122 505.325 37.4833 506.094 49.1587 506.401Z" fill="#FFF8E2" stroke="#FFF8E2" stroke-width="0.133333"/>
<path d="M30.1094 594.888C38.0929 594.888 44.9614 594.081 50.4658 592.701C55.9716 591.319 60.1077 589.364 62.6309 587.071C65.1515 584.779 66.0581 582.155 65.1279 579.421C64.2532 576.851 61.75 574.168 57.3945 571.567L56.498 571.047L56.4971 571.046C54.1933 569.664 52.4989 568.587 51.4482 567.739C50.9236 567.315 50.5547 566.944 50.3506 566.618C50.1457 566.29 50.1002 565.993 50.252 565.733C50.3991 565.48 50.7222 565.282 51.1992 565.118C51.6792 564.952 52.3301 564.817 53.1523 564.702C54.3863 564.528 56.0141 564.399 58.0469 564.28L60.2148 564.163H60.2178C65.4359 564.163 69.0262 563.203 71.0625 561.5C72.079 560.65 72.7093 559.613 72.9629 558.415C73.2166 557.217 73.0942 555.851 72.5977 554.342C71.6039 551.323 69.116 547.74 65.1826 543.797C61.4959 540.101 56.5431 536.092 50.3711 531.936L49.1211 531.104C41.747 526.341 36.1412 522.731 31.8799 520.245C27.6158 517.758 24.7083 516.402 22.7266 516.135C21.7383 516.002 20.9884 516.142 20.416 516.538C19.843 516.936 19.4361 517.599 19.1504 518.536C18.5778 520.416 18.501 523.363 18.501 527.361C18.501 531.343 19.5731 534.397 21.5547 536.454C23.536 538.512 26.4355 539.583 30.1094 539.583C33.4982 539.583 37.0402 540.353 40.043 541.585C43.0437 542.816 45.5153 544.513 46.7549 546.372L46.6992 546.41L46.7559 546.372L46.7588 546.38C47.3749 547.613 47.5784 548.594 47.3193 549.331C47.0581 550.075 46.3379 550.544 45.1768 550.777C44.0148 551.009 42.3937 551.008 40.2988 550.796C38.4647 550.611 36.2633 550.265 33.6826 549.769L32.5537 549.547H32.5518C25.794 548.011 20.8909 547.554 17.373 548.319C15.6158 548.701 14.2059 549.387 13.083 550.396C12.0301 551.342 11.2263 552.573 10.626 554.11L10.5088 554.421L10.5078 554.422L10.3135 554.936C8.37296 560.192 8.60338 563.986 11.0312 566.488C12.2872 567.782 14.1374 568.738 16.5977 569.37C19.0578 570.001 22.124 570.308 25.8076 570.308C29.1926 570.308 31.8192 570.923 33.3711 571.932C34.1477 572.437 34.6605 573.044 34.8584 573.726C35.0319 574.325 34.9611 574.973 34.627 575.649L34.4678 575.94L34.4639 575.946L34.3701 576.063C33.8776 576.643 33.0174 577.146 31.8887 577.552C30.6823 577.986 29.1595 578.314 27.4277 578.506C24.1806 578.867 20.191 578.754 16.1553 577.978L15.3506 577.815C9.82045 576.893 5.99891 576.897 3.56152 578.039C2.34614 578.609 1.47448 579.463 0.905273 580.629C0.335259 581.798 0.0664234 583.285 0.0664062 585.122C0.0664062 587.11 0.486885 588.708 1.47363 589.989C2.46089 591.27 4.02163 592.244 6.31836 592.971C10.9154 594.427 18.4326 594.888 30.1094 594.888Z" fill="#FFF8E2" stroke="#FFF8E2" stroke-width="0.133333"/>
</svg>
